<?xml version="1.0" encoding="UTF-8" standalone="no"?>
<!-- Created with Inkscape (http://www.inkscape.org/) -->

<svg
   xmlns:dc="http://purl.org/dc/elements/1.1/"
   xmlns:cc="http://creativecommons.org/ns#"
   xmlns:rdf="http://www.w3.org/1999/02/22-rdf-syntax-ns#"
   xmlns:svg="http://www.w3.org/2000/svg"
   xmlns="http://www.w3.org/2000/svg"
   xmlns:sodipodi="http://sodipodi.sourceforge.net/DTD/sodipodi-0.dtd"
   xmlns:inkscape="http://www.inkscape.org/namespaces/inkscape"
   width="4.2871752mm"
   height="1.0764416mm"
   viewBox="0 0 4.2871755 1.0764416"
   version="1.1"
   id="svg179"
   inkscape:version="0.92.3 (2405546, 2018-03-11)"
   sodipodi:docname="logotipo_binaptic_h_black_v2_16.svg">
  <defs
     id="defs173" />
  <sodipodi:namedview
     id="base"
     pagecolor="#ffffff"
     bordercolor="#666666"
     borderopacity="1.0"
     inkscape:pageopacity="0.0"
     inkscape:pageshadow="2"
     inkscape:zoom="44.8"
     inkscape:cx="7.24777"
     inkscape:cy="1.6268407"
     inkscape:document-units="mm"
     inkscape:current-layer="layer1"
     showgrid="false"
     inkscape:window-width="1920"
     inkscape:window-height="1017"
     inkscape:window-x="0"
     inkscape:window-y="30"
     inkscape:window-maximized="1"
     fit-margin-top="0"
     fit-margin-left="0"
     fit-margin-right="0"
     fit-margin-bottom="0"
     inkscape:pagecheckerboard="true" />
  <metadata
     id="metadata176">
    <rdf:RDF>
      <cc:Work
         rdf:about="">
        <dc:format>image/svg+xml</dc:format>
        <dc:type
           rdf:resource="http://purl.org/dc/dcmitype/StillImage" />
        <dc:title></dc:title>
      </cc:Work>
    </rdf:RDF>
  </metadata>
  <g
     inkscape:label="Capa 1"
     inkscape:groupmode="layer"
     id="layer1"
     transform="translate(-32.195694,-86.215894)">
    <g
       id="g897">
      <g
         id="g876">
        <g
           style="stroke:#000000;stroke-width:3;stroke-miterlimit:4;stroke-dasharray:none;stroke-opacity:1"
           id="g1065"
           transform="matrix(0.02,0,0,0.02,31.58118,85.526889)">
          <path
             d="M 34.115828,37.840379 H 70.288226 V 74.012777 H 34.115828 Z"
             style="fill:none;stroke:#000000;stroke-width:3;stroke-linecap:butt;stroke-linejoin:miter;stroke-miterlimit:4;stroke-dasharray:none;stroke-opacity:1"
             id="path192-2-6"
             inkscape:connector-curvature="0" />
          <path
             d="M 34.115828,55.926578 H 52.202027"
             style="fill:none;stroke:#000000;stroke-width:3;stroke-linecap:square;stroke-linejoin:miter;stroke-miterlimit:4;stroke-dasharray:none;stroke-opacity:1"
             id="path194-4-7"
             inkscape:connector-curvature="0" />
          <path
             d="M 52.202027,55.926578 70.288226,37.840379"
             style="fill:none;stroke:#000000;stroke-width:3;stroke-linecap:round;stroke-linejoin:miter;stroke-miterlimit:4;stroke-dasharray:none;stroke-opacity:1"
             id="path196-8-5"
             inkscape:connector-curvature="0" />
          <path
             d="M 52.202027,55.926578 70.288226,74.012777"
             style="fill:none;stroke:#000000;stroke-width:3;stroke-linecap:round;stroke-linejoin:miter;stroke-miterlimit:4;stroke-dasharray:none;stroke-opacity:1"
             id="path198-0-3"
             inkscape:connector-curvature="0" />
          <path
             d="m 32.225694,54.036444 h 3.78027 v 3.78027 h -3.78027 z"
             style="fill:#000000;fill-opacity:1;fill-rule:nonzero;stroke:#000000;stroke-width:3;stroke-miterlimit:4;stroke-dasharray:none;stroke-opacity:1"
             id="path200-0-5"
             inkscape:connector-curvature="0" />
          <path
             d="m 68.398092,35.950245 h 3.780269 v 3.78027 h -3.780269 z"
             style="fill:#000000;fill-opacity:1;fill-rule:nonzero;stroke:#000000;stroke-width:3;stroke-miterlimit:4;stroke-dasharray:none;stroke-opacity:1"
             id="path202-0-6"
             inkscape:connector-curvature="0" />
          <path
             d="m 68.398092,72.122643 h 3.780269 v 3.780269 h -3.780269 z"
             style="fill:#000000;fill-opacity:1;fill-rule:nonzero;stroke:#000000;stroke-width:3;stroke-miterlimit:4;stroke-dasharray:none;stroke-opacity:1"
             id="path204-5-2"
             inkscape:connector-curvature="0" />
        </g>
      </g>
      <g
         transform="matrix(0.02846442,0,0,0.02846442,31.484054,84.788179)"
         style="fill:#000000;fill-opacity:1;stroke:#000000;stroke-width:1.40526319;stroke-miterlimit:4;stroke-dasharray:none;stroke-opacity:1"
         id="g1527">
        <g
           style="fill:#000000;fill-opacity:1;stroke:#000000;stroke-width:3.17437625;stroke-miterlimit:4;stroke-dasharray:none;stroke-opacity:1"
           transform="matrix(0.44268956,0,0,-0.44268956,-83.642704,186.02859)"
           id="g322-77-0-9">
          <path
             d="m 358.311,284.4111 c 3.7273,0 6.6686,-0.7279 8.8239,-2.1839 2.2133,-1.456 3.8147,-3.7857 4.8042,-6.9893 1.049,-3.2035 1.5735,-7.4844 1.5735,-12.8424 0,-5.3581 -0.5825,-9.639 -1.7476,-12.8425 -1.1063,-3.2029 -2.8825,-5.5323 -5.3287,-6.9882 -2.4462,-1.456 -5.7372,-2.1839 -9.8729,-2.1839 -5.0084,0 -10.8907,0.9024 -17.6467,2.7073 v 59.4941 h 2.0969 v -18.9579 -3.0577 c 0,-2.1546 -0.0874,-3.8434 -0.2623,-5.0665 3.3196,2.9119 6.3774,5.1249 9.1732,6.6389 2.8539,1.5147 5.6494,2.272 8.3865,2.272 z m -1.7476,-42.0215 c 3.5532,0 6.4071,0.6406 8.5617,1.9217 2.1552,1.3399 3.728,3.4368 4.7182,6.2906 0.9903,2.912 1.4854,6.8431 1.4854,11.7936 0,4.9504 -0.4371,8.8525 -1.3113,11.7064 -0.8734,2.9126 -2.2709,5.0095 -4.1927,6.2907 -1.8643,1.3391 -4.3689,2.0087 -7.5137,2.0087 -2.621,0 -5.2417,-0.699 -7.862,-2.0969 -2.563,-1.3391 -5.7081,-3.5521 -9.4354,-6.6389 v -29.0919 c 2.9119,-0.8155 5.5619,-1.398 7.9501,-1.7477 2.4462,-0.2909 4.9794,-0.4363 7.5997,-0.4363 z"
             style="fill:#000000;fill-opacity:1;fill-rule:nonzero;stroke:#000000;stroke-width:3.17437625;stroke-miterlimit:4;stroke-dasharray:none;stroke-opacity:1"
             id="path22-7-3-1"
             inkscape:connector-curvature="0" />
          <path
             d="m 383.4584,241.4287 h -2.0969 v 41.9335 h 2.0969 z"
             style="fill:#000000;fill-opacity:1;fill-rule:nonzero;stroke:#000000;stroke-width:3.17437625;stroke-miterlimit:4;stroke-dasharray:none;stroke-opacity:1"
             id="path24-4-6-2"
             inkscape:connector-curvature="0" />
          <path
             d="m 415.7801,284.4111 c 3.7273,0 6.5228,-0.9612 8.3864,-2.8836 1.9217,-1.9217 2.8826,-4.7752 2.8826,-8.5606 v -31.5382 h -2.0969 v 31.276 c 0,3.3196 -0.786,5.7658 -2.3581,7.3385 -1.5727,1.5721 -3.9899,2.3581 -7.2515,2.3581 -2.9699,0 -5.9402,-0.6696 -8.9109,-2.0087 -2.9119,-1.3399 -6.5228,-3.5242 -10.8327,-6.553 v -32.4109 h -2.0969 v 41.9335 h 1.5724 l 0.2623,-7.6879 c 7.3385,5.8246 14.153,8.7368 20.4433,8.7368 z"
             style="fill:#000000;fill-opacity:1;fill-rule:nonzero;stroke:#000000;stroke-width:3.17437625;stroke-miterlimit:4;stroke-dasharray:none;stroke-opacity:1"
             id="path26-53-0-7"
             inkscape:connector-curvature="0" />
          <path
             d="m 455.5796,284.4111 c 7.7462,0 11.6194,-3.9021 11.6194,-11.7064 v -31.276 h -1.5724 l -0.4375,8.1243 c -2.0385,-2.0965 -5.0088,-4.0766 -8.9109,-5.9403 -3.9022,-1.8056 -7.7169,-2.7084 -11.4442,-2.7084 -3.4945,0 -6.2029,0.9028 -8.1253,2.7084 -1.8637,1.8637 -2.7955,4.4847 -2.7955,7.863 v 5.4158 c 0,3.1455 0.8738,5.5627 2.6214,7.2515 1.7468,1.7469 4.222,2.6203 7.4256,2.6203 h 21.1419 v 5.9414 c 0,6.4644 -3.2032,9.6966 -9.6096,9.6966 -5.7665,0 -12.3187,-0.4657 -19.6565,-1.3972 l -0.2623,1.5724 2.4462,0.3493 c 3.3777,0.4657 6.3186,0.815 8.8228,1.0479 2.505,0.2916 5.4173,0.4374 8.7369,0.4374 z m -10.3093,-41.41 c 3.2036,0 6.698,0.8445 10.4834,2.5333 3.7861,1.7476 6.9022,3.7861 9.3484,6.1155 v 13.3669 l -21.1419,-0.3493 c -2.5623,-0.0587 -4.5133,-0.7577 -5.8532,-2.0968 -1.3399,-1.2812 -2.0099,-3.1742 -2.0099,-5.6792 v -5.4158 c 0,-2.7958 0.7574,-4.9217 2.2721,-6.3777 1.5728,-1.3979 3.8731,-2.0969 6.9011,-2.0969 z"
             style="fill:#000000;fill-opacity:1;fill-rule:nonzero;stroke:#000000;stroke-width:3.17437625;stroke-miterlimit:4;stroke-dasharray:none;stroke-opacity:1"
             id="path28-9-8-0"
             inkscape:connector-curvature="0" />
          <path
             d="m 495.798,284.4111 c 3.7281,0 6.6694,-0.7279 8.8239,-2.1839 2.2134,-1.456 3.8151,-3.7857 4.8054,-6.9893 1.0482,-3.2035 1.5723,-7.4844 1.5723,-12.8424 0,-5.3581 -0.5241,-9.639 -1.5723,-12.8425 -0.9903,-3.2029 -2.592,-5.5323 -4.8054,-6.9882 -2.1545,-1.456 -5.0958,-2.1839 -8.8239,-2.1839 -2.7951,0 -5.6196,0.3783 -8.4735,1.1349 -2.7958,0.7574 -5.7955,1.9224 -8.9991,3.4952 0.1749,-1.3399 0.2623,-3.0871 0.2623,-5.2417 v -2.7966 -13.8903 h -2.0969 v 60.2798 h 1.5735 l 0.3493,-7.5998 c 3.1448,2.912 6.1151,5.0669 8.9109,6.4648 2.7951,1.456 5.6196,2.1839 8.4735,2.1839 z m 0,-42.0215 c 3.1455,0 5.6501,0.6406 7.5138,1.9217 1.9217,1.3399 3.3192,3.4368 4.1927,6.2906 0.8741,2.912 1.3112,6.8431 1.3112,11.7936 0,4.9504 -0.4371,8.8525 -1.3112,11.7064 -0.8735,2.9126 -2.271,5.0095 -4.1927,6.2907 -1.8637,1.3391 -4.3683,2.0087 -7.5138,2.0087 -2.679,0 -5.3291,-0.6696 -7.9501,-2.0087 -2.6203,-1.2812 -5.707,-3.4361 -9.2602,-6.4648 v -27.3444 c 3.7273,-1.5147 6.8724,-2.5924 9.4354,-3.233 2.563,-0.6405 5.1546,-0.9608 7.7749,-0.9608 z"
             style="fill:#000000;fill-opacity:1;fill-rule:nonzero;stroke:#000000;stroke-width:3.17437625;stroke-miterlimit:4;stroke-dasharray:none;stroke-opacity:1"
             id="path30-6-4-9"
             inkscape:connector-curvature="0" />
          <path
             d="m 522.6103,281.4405 v -31.6253 c 0,-2.2713 0.5822,-4.0186 1.7465,-5.2416 1.2231,-1.1651 2.9703,-1.7477 5.2417,-1.7477 h 7.6878 l 0.2623,-1.3972 c -2.3294,-0.3496 -4.8046,-0.5244 -7.4256,-0.5244 -3.2035,0 -5.6207,0.7573 -7.2515,2.2721 -1.572,1.5139 -2.358,3.6979 -2.358,6.5518 v 31.7123 h -7.6009 v 1.4853 l 7.6009,0.4364 v 13.1917 h 2.0968 v -13.1917 h 15.5499 v -1.9217 z"
             style="fill:#000000;fill-opacity:1;fill-rule:nonzero;stroke:#000000;stroke-width:3.17437625;stroke-miterlimit:4;stroke-dasharray:none;stroke-opacity:1"
             id="path32-7-9-3"
             inkscape:connector-curvature="0" />
          <path
             d="m 544.0939,241.4287 h -2.0969 v 41.9335 h 2.0969 z"
             style="fill:#000000;fill-opacity:1;fill-rule:nonzero;stroke:#000000;stroke-width:3.17437625;stroke-miterlimit:4;stroke-dasharray:none;stroke-opacity:1"
             id="path34-6-0-6"
             inkscape:connector-curvature="0" />
          <path
             d="m 570.9976,284.4111 c 1.8644,0 3.8739,-0.1164 6.0284,-0.3493 2.1553,-0.2328 4.0774,-0.6115 5.7662,-1.136 l -0.5245,-1.5724 c -1.3979,0.3497 -3.1451,0.6115 -5.2417,0.7857 -2.0965,0.1748 -3.9892,0.2622 -5.678,0.2622 -4.3686,0 -7.805,-0.6115 -10.3093,-1.8346 -2.4461,-1.1644 -4.2223,-3.2029 -5.3287,-6.1155 -1.107,-2.8539 -1.6605,-6.8725 -1.6605,-12.0557 0,-5.1833 0.5535,-9.2309 1.6605,-12.1428 1.1064,-2.8539 2.8826,-4.8924 5.3287,-6.1155 2.5043,-1.1651 5.9407,-1.7476 10.3093,-1.7476 1.572,0 3.5522,0.0874 5.9403,0.2622 2.3881,0.1749 4.4266,0.4368 6.1155,0.7857 l 0.3492,-1.5724 c -4.3678,-0.9895 -8.5903,-1.4842 -12.6672,-1.4842 -4.7176,0 -8.4743,0.6986 -11.2701,2.0958 -2.7959,1.4559 -4.8344,3.7857 -6.1155,6.9892 -1.2231,3.2036 -1.8347,7.5134 -1.8347,12.9296 0,5.4168 0.6116,9.7267 1.8347,12.9295 1.2811,3.2035 3.2906,5.5043 6.0284,6.9022 2.7952,1.456 6.5515,2.1839 11.269,2.1839 z"
             style="fill:#000000;fill-opacity:1;fill-rule:nonzero;stroke:#000000;stroke-width:3.17437625;stroke-miterlimit:4;stroke-dasharray:none;stroke-opacity:1"
             id="path36-6-5-0"
             inkscape:connector-curvature="0" />
        </g>
      </g>
    </g>
  </g>
</svg>
